<?xml version="1.0" encoding="iso-8859-1"?>
<!-- Generator: Adobe Illustrator 30.1.0, SVG Export Plug-In . SVG Version: 9.03 Build 0)  -->
<svg version="1.1" id="Layer_1" xmlns="http://www.w3.org/2000/svg" xmlns:xlink="http://www.w3.org/1999/xlink" x="0px" y="0px"
	 viewBox="0 0 868.783 166.927" style="enable-background:new 0 0 868.783 166.927;" xml:space="preserve">
<g>
	<g>
		<path style="fill:#0926AC;" d="M509.67,76.121h9.81c-1.23-5.31-3.78-9.5-7.62-12.58c-2.58-2.06-5.6-3.44-9.07-4.12v9.41
			c0.76,0.3,1.47,0.7,2.14,1.17C507.08,71.501,508.66,73.531,509.67,76.121z M504.93,96.721c-2.14,1.5-4.72,2.25-7.72,2.25
			c-2.47,0-4.71-0.64-6.69-1.91c-1.99-1.27-3.54-3.08-4.64-5.44c-1.11-2.35-1.66-5.1-1.66-8.23c0-3.17,0.55-5.93,1.66-8.29
			c1.1-2.36,2.65-4.17,4.64-5.44c0.3-0.19,0.6-0.37,0.91-0.53v-9.54c-2.15,0.51-4.13,1.32-5.95,2.42c-3.4,2.06-6.05,4.95-7.92,8.67
			c-1.88,3.72-2.82,7.95-2.82,12.71c0,4.72,0.94,8.94,2.82,12.65c1.87,3.72,4.53,6.61,7.95,8.67c3.43,2.07,7.37,3.1,11.83,3.1
			c5.84,0,10.67-1.54,14.52-4.63c3.84-3.08,6.39-7.27,7.62-12.58h-9.81C508.66,93.191,507.08,95.231,504.93,96.721z"/>
		<path style="fill:#0926AC;" d="M535.524,59.391v28.152c0,3.763,0.806,6.585,2.42,8.466c1.612,1.882,3.943,2.822,6.993,2.822
			c3.004,0,5.312-0.94,6.927-2.822c1.612-1.881,2.419-4.703,2.419-8.466V59.391h9.28v28.152c0,4.443-0.808,8.193-2.42,11.254
			c-1.613,3.06-3.845,5.338-6.694,6.834c-2.851,1.496-6.088,2.244-9.711,2.244c-5.612,0-10.099-1.723-13.456-5.168
			c-3.358-3.445-5.037-8.5-5.037-15.164V59.391H535.524z"/>
		<path style="fill:#0926AC;" d="M602.14,101.042c-1.193,2.063-2.961,3.718-5.303,4.964c-2.343,1.247-5.193,1.87-8.551,1.87
			c-3.314,0-6.275-0.578-8.882-1.734c-2.608-1.156-4.696-2.822-6.264-4.998c-1.569-2.176-2.465-4.714-2.685-7.616h9.942
			c0.221,1.95,0.982,3.57,2.287,4.862c1.303,1.292,3.037,1.938,5.203,1.938c1.944,0,3.436-0.533,4.475-1.599
			c1.037-1.064,1.558-2.437,1.558-4.114c0-1.496-0.421-2.73-1.26-3.705c-0.84-0.975-1.9-1.757-3.182-2.347
			c-1.282-0.589-3.049-1.269-5.303-2.04c-2.917-0.996-5.303-1.982-7.159-2.958c-1.855-0.974-3.437-2.391-4.739-4.25
			c-1.304-1.858-1.955-4.284-1.955-7.276c0-4.124,1.446-7.377,4.342-9.758c2.894-2.38,6.728-3.569,11.5-3.569
			c4.948,0,8.893,1.224,11.832,3.672c2.938,2.448,4.606,5.712,5.005,9.792h-10.076c-0.265-1.723-0.972-3.139-2.121-4.25
			c-1.149-1.11-2.717-1.666-4.706-1.666c-1.724,0-3.115,0.465-4.176,1.394c-1.061,0.93-1.591,2.278-1.591,4.046
			c0,1.406,0.408,2.574,1.227,3.502c0.817,0.93,1.855,1.689,3.115,2.278c1.26,0.59,2.972,1.247,5.137,1.972
			c3.005,1.088,5.446,2.108,7.325,3.061c1.877,0.952,3.479,2.38,4.806,4.284c1.325,1.903,1.988,4.397,1.988,7.479
			C603.93,96.723,603.333,98.979,602.14,101.042z"/>
	</g>
	<g>
		
			<rect x="492.429" y="48.676" transform="matrix(-1.836970e-16 1 -1 -1.836970e-16 550.4698 -443.7536)" style="fill:#0926AC;" width="9.365" height="9.365"/>
	</g>
	<g>
		<g>
			<path style="fill:#3C3A3C;" d="M635.049,59.413c1.564,1.232,2.619,2.902,3.165,5.012h-3.302c-0.455-1.194-1.179-2.142-2.17-2.842
				c-0.992-0.7-2.206-1.05-3.643-1.05c-1.146,0-2.17,0.29-3.07,0.868s-1.61,1.404-2.129,2.478c-0.519,1.073-0.777,2.328-0.777,3.766
				c0,1.418,0.259,2.664,0.777,3.737s1.229,1.898,2.129,2.478c0.9,0.578,1.924,0.867,3.07,0.867c1.437,0,2.65-0.35,3.643-1.05
				c0.991-0.699,1.715-1.638,2.17-2.813h3.302c-0.546,2.109-1.601,3.775-3.165,4.997c-1.565,1.223-3.53,1.834-5.895,1.834
				c-1.82,0-3.43-0.424-4.83-1.273c-1.401-0.85-2.484-2.034-3.248-3.556c-0.764-1.521-1.146-3.262-1.146-5.221
				c0-1.96,0.383-3.7,1.146-5.222c0.764-1.521,1.847-2.711,3.248-3.569c1.4-0.858,3.01-1.288,4.83-1.288
				C631.519,57.565,633.484,58.181,635.049,59.413z"/>
			<path style="fill:#3C3A3C;" d="M655.188,70.443h-11.57c0.055,1.587,0.481,2.763,1.282,3.527c0.801,0.766,1.792,1.148,2.975,1.148
				c1.037,0,1.915-0.271,2.634-0.812c0.719-0.541,1.16-1.26,1.323-2.155h3.329c-0.2,1.083-0.618,2.044-1.255,2.884
				c-0.638,0.84-1.465,1.497-2.483,1.974c-1.02,0.476-2.156,0.714-3.411,0.714c-1.456,0-2.743-0.317-3.861-0.952
				c-1.119-0.634-1.997-1.549-2.634-2.743s-0.955-2.604-0.955-4.228c0-1.605,0.318-3.005,0.955-4.199s1.515-2.109,2.634-2.744
				c1.118-0.634,2.405-0.951,3.861-0.951c1.474,0,2.761,0.312,3.861,0.938c1.101,0.626,1.946,1.484,2.538,2.576
				c0.591,1.092,0.887,2.31,0.887,3.653C655.297,69.594,655.26,70.051,655.188,70.443z M651.655,66.454
				c-0.373-0.681-0.883-1.185-1.529-1.512c-0.646-0.326-1.351-0.489-2.114-0.489c-1.22,0-2.237,0.382-3.057,1.147
				c-0.818,0.766-1.265,1.895-1.337,3.388h8.541C652.196,67.98,652.027,67.135,651.655,66.454z"/>
			<path style="fill:#3C3A3C;" d="M670.907,63.585c1.055,1.157,1.582,2.809,1.582,4.955v8.986h-3.11v-8.65
				c0-1.381-0.346-2.449-1.037-3.205s-1.638-1.134-2.838-1.134c-1.237,0-2.229,0.405-2.975,1.218
				c-0.746,0.812-1.119,2.001-1.119,3.569v8.202h-3.11V62.1h3.11v3.388c0.4-1.157,1.073-2.053,2.02-2.688
				c0.946-0.634,2.037-0.952,3.274-0.952C668.451,61.848,669.851,62.427,670.907,63.585z"/>
			<path style="fill:#3C3A3C;" d="M683.678,74.755v2.771h-1.91c-1.602,0-2.816-0.396-3.644-1.189
				c-0.828-0.793-1.241-2.114-1.241-3.962v-7.559h-2.156V62.1h2.156v-3.835h3.138V62.1h3.63v2.716h-3.63v7.615
				c0,0.877,0.159,1.483,0.478,1.819s0.878,0.504,1.679,0.504H683.678z"/>
			<path style="fill:#3C3A3C;" d="M700.46,70.443h-11.57c0.055,1.587,0.481,2.763,1.282,3.527c0.801,0.766,1.792,1.148,2.975,1.148
				c1.037,0,1.915-0.271,2.634-0.812c0.718-0.541,1.159-1.26,1.323-2.155h3.329c-0.2,1.083-0.618,2.044-1.255,2.884
				s-1.465,1.497-2.483,1.974c-1.019,0.476-2.156,0.714-3.411,0.714c-1.456,0-2.742-0.317-3.861-0.952
				c-1.119-0.634-1.997-1.549-2.634-2.743s-0.955-2.604-0.955-4.228c0-1.605,0.318-3.005,0.955-4.199s1.515-2.109,2.634-2.744
				c1.119-0.634,2.405-0.951,3.861-0.951c1.474,0,2.761,0.312,3.861,0.938c1.101,0.626,1.946,1.484,2.538,2.576
				c0.591,1.092,0.887,2.31,0.887,3.653C700.57,69.594,700.534,70.051,700.46,70.443z M696.926,66.454
				c-0.373-0.681-0.882-1.185-1.527-1.512c-0.646-0.326-1.352-0.489-2.115-0.489c-1.219,0-2.238,0.382-3.057,1.147
				s-1.265,1.895-1.337,3.388h8.542C697.467,67.98,697.299,67.135,696.926,66.454z"/>
			<path style="fill:#3C3A3C;" d="M708.866,62.73c0.945-0.588,2.037-0.882,3.274-0.882v3.472h-0.928
				c-1.364,0-2.46,0.341-3.288,1.022c-0.828,0.681-1.242,1.806-1.242,3.373v7.811h-3.11V62.1h3.11v3.024
				C707.192,64.117,707.919,63.319,708.866,62.73z"/>
			<path style="fill:#3C3A3C;" d="M731.652,62.856c1.164,0.635,2.074,1.55,2.729,2.744c0.654,1.194,0.982,2.594,0.982,4.199
				c0,1.624-0.328,3.033-0.982,4.228c-0.655,1.194-1.565,2.109-2.729,2.743c-1.164,0.635-2.474,0.952-3.93,0.952
				c-1.455,0-2.761-0.317-3.916-0.952c-1.155-0.634-2.064-1.554-2.729-2.758c-0.664-1.203-0.996-2.607-0.996-4.213
				s0.332-3.005,0.996-4.199s1.573-2.109,2.729-2.744c1.155-0.634,2.461-0.951,3.916-0.951
				C729.178,61.905,730.488,62.222,731.652,62.856z M725.512,65.236c-0.674,0.374-1.215,0.947-1.624,1.722s-0.614,1.722-0.614,2.842
				c0,1.139,0.205,2.091,0.614,2.855c0.409,0.766,0.95,1.335,1.624,1.708c0.673,0.373,1.409,0.56,2.21,0.56s1.537-0.187,2.211-0.56
				c0.673-0.373,1.214-0.942,1.624-1.708c0.408-0.765,0.613-1.717,0.613-2.855c0-1.12-0.205-2.067-0.613-2.842
				c-0.41-0.774-0.951-1.348-1.624-1.722c-0.674-0.373-1.41-0.56-2.211-0.56S726.185,64.863,725.512,65.236z"/>
			<path style="fill:#3C3A3C;" d="M742.813,59.511c-0.491,0.457-0.736,1.236-0.736,2.337V62.1h3.302v2.744h-3.302v12.682h-3.139
				V64.844h-2.047V62.1h2.047v-0.504c0-1.885,0.537-3.298,1.61-4.241c1.073-0.941,2.683-1.357,4.83-1.245v2.799
				C744.16,58.853,743.304,59.054,742.813,59.511z"/>
			<path style="fill:#3C3A3C;" d="M623.533,87.756v11.73c0,1.754,0.378,3.061,1.133,3.919s1.814,1.288,3.179,1.288
				c1.346,0,2.396-0.43,3.152-1.288c0.754-0.858,1.133-2.165,1.133-3.919v-11.73h3.11v11.73c0,2.706-0.683,4.754-2.047,6.145
				s-3.165,2.086-5.403,2.086c-2.22,0-4.002-0.695-5.349-2.086s-2.019-3.438-2.019-6.145v-11.73H623.533z"/>
			<path style="fill:#3C3A3C;" d="M644.164,92.725c0.945-0.588,2.037-0.882,3.274-0.882v3.472h-0.928
				c-1.364,0-2.461,0.341-3.288,1.022c-0.828,0.681-1.242,1.806-1.242,3.373v7.811h-3.11V92.095h3.11v3.024
				C642.489,94.112,643.217,93.314,644.164,92.725z"/>
			<path style="fill:#3C3A3C;" d="M661.887,92.851c1.027,0.635,1.833,1.55,2.415,2.744s0.874,2.594,0.874,4.199
				c0,1.624-0.292,3.033-0.874,4.228s-1.388,2.109-2.415,2.743c-1.027,0.635-2.196,0.952-3.506,0.952
				c-1.365,0-2.529-0.346-3.494-1.036c-0.964-0.69-1.637-1.604-2.019-2.743v3.583h-3.111V86.804h3.111v8.875
				c0.382-1.139,1.055-2.053,2.019-2.744c0.965-0.689,2.129-1.035,3.494-1.035C659.691,91.9,660.86,92.217,661.887,92.851z
				 M655.079,95.33c-0.691,0.42-1.237,1.017-1.637,1.791c-0.4,0.774-0.601,1.666-0.601,2.674c0,1.026,0.2,1.923,0.601,2.688
				c0.399,0.766,0.945,1.357,1.637,1.777s1.474,0.63,2.348,0.63c1.382,0,2.492-0.452,3.328-1.357
				c0.837-0.905,1.256-2.15,1.256-3.737c0-1.567-0.419-2.809-1.256-3.724c-0.836-0.914-1.946-1.371-3.328-1.371
				C656.552,94.7,655.77,94.91,655.079,95.33z"/>
			<path style="fill:#3C3A3C;" d="M677.702,92.935c0.964,0.691,1.646,1.605,2.047,2.744v-3.584h3.11v15.426h-3.11v-3.583
				c-0.4,1.139-1.083,2.053-2.047,2.743c-0.965,0.69-2.129,1.036-3.493,1.036c-1.31,0-2.479-0.317-3.507-0.952
				c-1.027-0.634-1.833-1.549-2.415-2.743s-0.873-2.604-0.873-4.228c0-1.605,0.291-3.005,0.873-4.199s1.388-2.109,2.415-2.744
				c1.027-0.634,2.197-0.951,3.507-0.951C675.573,91.9,676.737,92.246,677.702,92.935z M671.848,96.057
				c-0.828,0.905-1.242,2.151-1.242,3.737c0,1.587,0.414,2.832,1.242,3.737c0.827,0.905,1.933,1.357,3.315,1.357
				c0.873,0,1.655-0.21,2.347-0.63s1.237-1.012,1.638-1.777c0.399-0.765,0.601-1.661,0.601-2.688c0-1.008-0.201-1.899-0.601-2.674
				c-0.4-0.774-0.946-1.371-1.638-1.791s-1.474-0.63-2.347-0.63C673.781,94.7,672.675,95.152,671.848,96.057z"/>
			<path style="fill:#3C3A3C;" d="M699.206,93.58c1.055,1.157,1.582,2.809,1.582,4.955v8.986h-3.11v-8.65
				c0-1.381-0.346-2.449-1.037-3.205s-1.638-1.134-2.838-1.134c-1.237,0-2.229,0.405-2.975,1.218
				c-0.746,0.812-1.119,2.001-1.119,3.569v8.202h-3.11V92.095h3.11v3.388c0.4-1.157,1.073-2.053,2.02-2.688
				c0.946-0.634,2.037-0.952,3.274-0.952C696.749,91.843,698.15,92.422,699.206,93.58z"/>
			<path style="fill:#3C3A3C;" d="M722.783,104.96c-0.454,0.831-1.146,1.498-2.073,2.002s-2.065,0.756-3.412,0.756
				c-1.31,0-2.482-0.238-3.52-0.714c-1.037-0.477-1.865-1.144-2.483-2.002c-0.619-0.858-0.974-1.848-1.064-2.968h3.329
				c0.091,0.859,0.45,1.596,1.078,2.212s1.469,0.924,2.524,0.924c0.945,0,1.679-0.261,2.196-0.784
				c0.519-0.522,0.778-1.194,0.778-2.016c0-0.709-0.191-1.292-0.573-1.749s-0.855-0.816-1.419-1.078
				c-0.564-0.262-1.337-0.56-2.319-0.896c-1.201-0.393-2.18-0.784-2.934-1.176c-0.756-0.393-1.396-0.962-1.924-1.708
				c-0.528-0.746-0.792-1.727-0.792-2.939c0-1.064,0.255-1.997,0.765-2.8c0.509-0.802,1.236-1.423,2.183-1.861
				s2.037-0.658,3.274-0.658c1.965,0,3.525,0.485,4.681,1.456s1.814,2.239,1.979,3.807H719.7c-0.128-0.746-0.469-1.386-1.023-1.917
				c-0.556-0.532-1.314-0.798-2.279-0.798c-0.873,0-1.573,0.229-2.101,0.686c-0.528,0.458-0.792,1.115-0.792,1.974
				c0,0.672,0.182,1.228,0.546,1.666s0.823,0.784,1.378,1.036s1.314,0.546,2.279,0.882c1.219,0.392,2.215,0.788,2.988,1.189
				c0.772,0.401,1.428,0.984,1.965,1.75c0.536,0.765,0.805,1.772,0.805,3.023C723.465,103.229,723.238,104.13,722.783,104.96z"/>
			<path style="fill:#3C3A3C;" d="M728.35,92.095l4.503,11.339l4.175-11.339h3.466l-9.087,22.761h-3.466l3.247-7.699l-6.331-15.062
				H728.35z"/>
			<path style="fill:#3C3A3C;" d="M751.723,93.286c1.064,0.924,1.715,2.16,1.951,3.709h-2.947c-0.127-0.84-0.478-1.516-1.051-2.029
				c-0.572-0.514-1.333-0.77-2.278-0.77c-0.782,0-1.388,0.191-1.814,0.573c-0.428,0.383-0.642,0.9-0.642,1.554
				c0,0.485,0.154,0.878,0.464,1.176c0.31,0.299,0.696,0.532,1.16,0.7s1.123,0.354,1.978,0.56c1.129,0.262,2.043,0.532,2.743,0.812
				c0.7,0.279,1.301,0.723,1.801,1.329c0.501,0.607,0.751,1.433,0.751,2.478c0,1.288-0.478,2.333-1.433,3.136
				c-0.956,0.803-2.243,1.204-3.862,1.204c-1.873,0-3.388-0.448-4.543-1.344c-1.155-0.896-1.852-2.146-2.088-3.752h3.029
				c0.091,0.84,0.455,1.521,1.092,2.044s1.474,0.784,2.51,0.784c0.746,0,1.333-0.201,1.761-0.603c0.427-0.4,0.642-0.909,0.642-1.525
				c0-0.541-0.164-0.971-0.491-1.288c-0.328-0.316-0.737-0.564-1.229-0.741c-0.491-0.178-1.164-0.359-2.02-0.546
				c-1.091-0.262-1.979-0.522-2.66-0.784c-0.683-0.261-1.265-0.686-1.747-1.273s-0.723-1.386-0.723-2.394
				c0-1.307,0.478-2.366,1.433-3.178c0.955-0.812,2.278-1.218,3.971-1.218C749.245,91.9,750.659,92.362,751.723,93.286z"/>
			<path style="fill:#3C3A3C;" d="M764.508,104.75v2.771h-1.91c-1.602,0-2.815-0.396-3.644-1.189s-1.241-2.114-1.241-3.962v-7.559
				h-2.156v-2.716h2.156V88.26h3.139v3.835h3.629v2.716h-3.629v7.615c0,0.877,0.158,1.483,0.477,1.819s0.878,0.504,1.679,0.504
				H764.508z"/>
			<path style="fill:#3C3A3C;" d="M781.291,100.438H769.72c0.055,1.587,0.481,2.763,1.282,3.527
				c0.801,0.766,1.792,1.148,2.975,1.148c1.037,0,1.915-0.271,2.634-0.812c0.719-0.541,1.16-1.26,1.323-2.155h3.33
				c-0.201,1.083-0.619,2.044-1.256,2.884s-1.465,1.497-2.483,1.974c-1.019,0.476-2.155,0.714-3.411,0.714
				c-1.455,0-2.742-0.317-3.861-0.952c-1.119-0.634-1.996-1.549-2.633-2.743c-0.638-1.194-0.955-2.604-0.955-4.228
				c0-1.605,0.317-3.005,0.955-4.199c0.637-1.194,1.514-2.109,2.633-2.744c1.119-0.634,2.406-0.951,3.861-0.951
				c1.474,0,2.761,0.312,3.861,0.938c1.101,0.626,1.947,1.484,2.538,2.576s0.887,2.31,0.887,3.653
				C781.4,99.589,781.364,100.046,781.291,100.438z M777.757,96.449c-0.373-0.681-0.883-1.185-1.528-1.512
				c-0.646-0.326-1.352-0.489-2.115-0.489c-1.219,0-2.237,0.382-3.057,1.147c-0.818,0.766-1.264,1.895-1.337,3.388h8.542
				C778.298,97.975,778.129,97.13,777.757,96.449z"/>
			<path style="fill:#3C3A3C;" d="M807.475,93.58c1.063,1.157,1.596,2.809,1.596,4.955v8.986h-3.11v-8.65
				c0-1.344-0.328-2.384-0.982-3.121c-0.655-0.737-1.556-1.106-2.702-1.106c-1.219,0-2.188,0.396-2.906,1.19
				c-0.719,0.793-1.078,1.955-1.078,3.485v8.202h-3.11v-8.65c0-1.344-0.327-2.384-0.982-3.121s-1.556-1.106-2.702-1.106
				c-1.219,0-2.188,0.396-2.906,1.19c-0.719,0.793-1.078,1.955-1.078,3.485v8.202h-3.11V92.095h3.11v3.22
				c0.383-1.119,1.02-1.978,1.91-2.575c0.892-0.598,1.938-0.896,3.139-0.896c1.256,0,2.342,0.318,3.262,0.952
				c0.918,0.635,1.586,1.55,2.005,2.744c0.437-1.157,1.138-2.062,2.102-2.716s2.056-0.98,3.274-0.98
				C804.987,91.843,806.411,92.422,807.475,93.58z"/>
			<path style="fill:#3C3A3C;" d="M821.883,93.286c1.064,0.924,1.715,2.16,1.951,3.709h-2.947c-0.127-0.84-0.478-1.516-1.051-2.029
				c-0.572-0.514-1.333-0.77-2.278-0.77c-0.782,0-1.388,0.191-1.814,0.573c-0.428,0.383-0.642,0.9-0.642,1.554
				c0,0.485,0.154,0.878,0.464,1.176c0.31,0.299,0.696,0.532,1.16,0.7s1.123,0.354,1.978,0.56c1.129,0.262,2.043,0.532,2.743,0.812
				c0.7,0.279,1.301,0.723,1.801,1.329c0.501,0.607,0.751,1.433,0.751,2.478c0,1.288-0.478,2.333-1.433,3.136
				c-0.956,0.803-2.243,1.204-3.862,1.204c-1.873,0-3.388-0.448-4.543-1.344c-1.155-0.896-1.852-2.146-2.088-3.752h3.029
				c0.091,0.84,0.455,1.521,1.092,2.044s1.474,0.784,2.51,0.784c0.746,0,1.333-0.201,1.761-0.603c0.427-0.4,0.642-0.909,0.642-1.525
				c0-0.541-0.164-0.971-0.491-1.288c-0.328-0.316-0.737-0.564-1.229-0.741c-0.491-0.178-1.164-0.359-2.02-0.546
				c-1.091-0.262-1.979-0.522-2.66-0.784c-0.683-0.261-1.265-0.686-1.747-1.273s-0.723-1.386-0.723-2.394
				c0-1.307,0.478-2.366,1.433-3.178c0.955-0.812,2.278-1.218,3.971-1.218C819.405,91.9,820.819,92.362,821.883,93.286z"/>
		</g>
	</g>
</g>
<g>
	<g>
		<rect x="428.449" y="43.367" style="fill:#D7492A;" width="1.042" height="80.162"/>
	</g>
</g>
<g>
	<rect x="43.818" y="43.454" style="fill:#D7492A;" width="80.061" height="80.061"/>
	<path style="fill:#FFFFFF;" d="M105.169,59.628v28.071c0,6.32-1.87,11.39-5.61,15.208c-3.742,3.819-8.972,5.728-15.695,5.728
		c-6.766,0-12.014-1.909-15.743-5.728c-3.73-3.819-5.595-8.888-5.595-15.208V59.628h11.523v27.87c0,3.193,0.832,5.772,2.496,7.739
		c1.664,1.966,4.098,2.947,7.303,2.947c3.205,0,5.638-0.982,7.302-2.947c1.665-1.967,2.496-4.546,2.496-7.739v-27.87H105.169z"/>
	<rect x="131.957" y="43.454" style="fill:#D7492A;" width="80.061" height="80.061"/>
	<rect x="220.023" y="43.454" style="fill:#D7492A;" width="80.061" height="80.061"/>
	<rect x="308.09" y="43.454" style="fill:#D7492A;" width="80.061" height="80.061"/>
	<polygon style="fill:#FFFFFF;" points="197.479,59.466 197.479,107.503 186.091,107.503 186.091,79.364 171.954,98.659 
		157.885,79.364 157.885,107.503 146.495,107.503 146.495,59.466 157.315,59.466 172.021,80.805 186.626,59.466 	"/>
	<path style="fill:#FFFFFF;" d="M265.447,96.492c1.34-1.329,2.01-3.042,2.01-5.142c0-2.01-0.67-3.69-2.01-5.041
		s-3.139-2.027-5.393-2.027c-2.189,0-3.97,0.67-5.343,2.01c-1.374,1.34-2.06,3.025-2.06,5.058c0,2.1,0.676,3.813,2.027,5.142
		c1.351,1.329,3.149,1.993,5.393,1.993S264.107,97.822,265.447,96.492 M274.023,79.677c3.171,3.115,4.757,7.007,4.757,11.674
		c0,4.936-1.782,9.05-5.343,12.344c-3.562,3.294-8.017,4.941-13.366,4.941c-5.349,0-9.809-1.636-13.383-4.908
		c-3.573-3.272-5.36-7.397-5.36-12.377c0-3.193,1.129-6.588,3.384-10.183l13.634-21.539h12.829l-9.38,14.839
		C266.776,74.825,270.851,76.562,274.023,79.677"/>
	<path style="fill:#FFFFFF;" d="M355.289,81.776c1.296-1.407,1.943-3.048,1.943-4.924c0-1.877-0.615-3.524-1.842-4.941
		c-1.229-1.418-2.758-2.127-4.589-2.127h-11.591v14.103h11.121C352.34,83.886,353.993,83.183,355.289,81.776 M363.512,64.759
		c3.182,3.529,4.774,7.527,4.774,11.993c0,4.533-1.613,8.553-4.841,12.059c-3.227,3.507-7.509,5.259-12.846,5.259h-11.39v13.433
		h-11.255V59.466h23.113C356.182,59.466,360.33,61.231,363.512,64.759"/>
</g>
</svg>
